<svg viewBox="0 0 500 284.477" xmlns="http://www.w3.org/2000/svg" xml:space="preserve">
    <g class="logo">
        <path d="M250.331 40.465a101.944 101.944 0 0 1 66.733 25.016l28.78-28.779c-54.185-48.936-136.608-48.936-190.792 0l28.466 28.779a101.952 101.952 0 0 1 66.813-25.016z"/>
        <path d="M354.47 45.171 325.69 73.95c29.086 32.349 34.44 79.589 13.331 117.627l-57.235-54.893-25.947-61.95v93.238l56.687 54.345c-36.715 28.64-88.2 28.64-124.915 0l56.466-54.345V74.734l-25.613 62.107-56.956 54.893c-21.109-38.038-15.728-85.279 13.358-117.627L146.1 45.171c-53.558 57.536-50.328 147.596 7.209 201.155 57.537 53.559 147.6 50.333 201.158-7.203 50.868-54.645 50.871-139.308.003-193.952z"/>
    </g>
    <a href="#" class="js-activate-game-version" data-game-version="1">
        <g>
            <path class="frame" d="M0 92.065v100.14c0 .105.247.005.249.11.174 6.625 5.929 12.454 12.553 11.474H86.75c8.104 21.565 20.39 41.517 36.152 58.314l13.252-13.148c-56.478-60.096-56.478-153.7 0-213.795l-12.938-13.12c-15.858 16.784-28.25 36.676-36.466 58.241H12.488C5.862 80.281 0 85.438 0 92.065z"/>
            <path class="number" d="M38.719 101.846h15.684v81.359H38.719z"/>
        </g>
    </a>
    <a href="#" class="js-activate-game-version" data-game-version="2">
        <g>
            <path class="frame" d="M488.095 80.281h-74.262c-8.216-21.565-20.608-41.432-36.465-58.215l-12.939 13.2c56.479 60.095 56.479 153.724 0 213.82l13.253 13.032c15.762-16.798 28.047-36.763 36.151-58.328h73.948c6.623.98 12.046-4.849 12.219-11.474.004-.105-.084-.005-.084-.11V92.065c0-6.627-5.195-11.784-11.821-11.784z"/>
            <path class="number" d="m444.259 165.561 29.485-27.651c1.81-1.588 3.518-3.225 5.049-5.082 2.047-2.671 3.479-5.801 3.479-9.16v-6.666c0-.989.09-1.99-.028-2.98a16.175 16.175 0 0 0-1.113-3.45l-49.881 47.051c-1.568 1.49-3.365 2.98-4.856 4.705-2.443 2.771-3.915 6.344-3.915 10.038v10.84h51.188c1.964 0 3.793-.763 5.4-1.892 3.667-2.572 6.146-7.078 5.166-11.536v-4.217h-39.974zm31.524-61.304c-2.001-1.593-4.501-2.412-7.058-2.412h-29.643c-.964 0-1.938-.143-2.901-.028-3.739 1.215-6.99 3.853-8.773 7.357a21.61 21.61 0 0 0-2.97 10.964v8.173h17.644v-9.802h18.802l14.899-14.252z"/>
        </g>
    </a>
</svg>